<svg width="12" height="18" viewBox="0 0 12 18" fill="none" xmlns="http://www.w3.org/2000/svg">
<path d="M9.33269 0.667969H2.66602C2.00298 0.667969 1.3671 0.931361 0.898255 1.4002C0.429414 1.86904 0.166022 2.50493 0.166022 3.16797V16.5013C0.165439 16.6481 0.203668 16.7925 0.276837 16.9198C0.350007 17.0472 0.455519 17.1529 0.582689 17.2263C0.709371 17.2994 0.853075 17.3379 0.999355 17.3379C1.14564 17.3379 1.28934 17.2994 1.41602 17.2263L5.99936 14.5763L10.5827 17.2263C10.7097 17.2983 10.8534 17.3356 10.9994 17.3346C11.1453 17.3356 11.289 17.2983 11.416 17.2263C11.5432 17.1529 11.6487 17.0472 11.7219 16.9198C11.795 16.7925 11.8333 16.6481 11.8327 16.5013V3.16797C11.8327 2.50493 11.5693 1.86904 11.1005 1.4002C10.6316 0.931361 9.99573 0.667969 9.33269 0.667969ZM10.166 15.0596L6.41602 12.893C6.28934 12.8198 6.14564 12.7813 5.99936 12.7813C5.85307 12.7813 5.70937 12.8198 5.58269 12.893L1.83269 15.0596V3.16797C1.83269 2.94695 1.92049 2.73499 2.07677 2.57871C2.23305 2.42243 2.44501 2.33464 2.66602 2.33464H9.33269C9.5537 2.33464 9.76566 2.42243 9.92194 2.57871C10.0782 2.73499 10.166 2.94695 10.166 3.16797V15.0596Z" fill="#031025"/>
</svg>
