<svg width="16" height="10" viewBox="0 0 16 10" fill="none" xmlns="http://www.w3.org/2000/svg">
<path d="M8.82837 9.12953L15.42 2.5262C15.5294 2.41774 15.6162 2.28871 15.6754 2.14654C15.7346 2.00437 15.7651 1.85188 15.7651 1.69786C15.7651 1.54385 15.7346 1.39136 15.6754 1.24919C15.6162 1.10702 15.5294 0.977988 15.42 0.869531C15.2014 0.652239 14.9058 0.530273 14.5975 0.530273C14.2893 0.530273 13.9936 0.652239 13.775 0.869531L7.94171 6.64453L2.16671 0.869531C1.94812 0.652239 1.65242 0.530273 1.34421 0.530273C1.03599 0.530273 0.740296 0.652239 0.521707 0.869531C0.41147 0.977582 0.323771 1.10643 0.263692 1.24862C0.203612 1.39081 0.172348 1.54351 0.171707 1.69786C0.172348 1.85222 0.203612 2.00492 0.263692 2.14711C0.323771 2.2893 0.41147 2.41815 0.521707 2.5262L7.11337 9.12953C7.22262 9.24795 7.35522 9.34246 7.5028 9.40711C7.65038 9.47175 7.80975 9.50512 7.97087 9.50512C8.13199 9.50512 8.29136 9.47175 8.43895 9.40711C8.58653 9.34246 8.71912 9.24795 8.82837 9.12953Z" fill="#031025"/>
</svg>
