<svg width="20" height="20" viewBox="0 0 20 20" fill="none" xmlns="http://www.w3.org/2000/svg">
<path d="M12.2668 2.82358L12.2668 2.82352C12.0377 2.42838 11.7092 2.09993 11.3141 1.87086L11.2389 2.00062L11.3141 1.87085C10.0622 1.1451 8.45895 1.57159 7.73314 2.82352L7.73311 2.82358L0.941939 14.5496C0.71065 14.9489 0.588883 15.4021 0.588937 15.8635C0.589207 17.3106 1.76248 18.4835 3.20961 18.4833H16.7878C16.7879 18.4833 16.7879 18.4833 16.7879 18.4833C17.2496 18.4834 17.7032 18.3616 18.1028 18.1301C19.3557 17.4043 19.783 15.8002 19.0572 14.5472L12.2668 2.82358Z" fill="#3079EC" stroke="#3079EC" stroke-width="0.3"/>
<path d="M9.43341 11.2505L9.43342 11.2506L10.4167 11.25H10.5667V11.2499V7.91667C10.5667 7.60372 10.313 7.35 10.0001 7.35C9.68714 7.35 9.43342 7.60372 9.43342 7.91667L9.43341 11.2505ZM10.0001 13.0792C9.62961 13.0792 9.32925 13.3795 9.32925 13.75C9.32925 14.1205 9.62961 14.4208 10.0001 14.4208C10.3706 14.4208 10.6709 14.1205 10.6709 13.75C10.6709 13.3795 10.3706 13.0792 10.0001 13.0792Z" fill="white" stroke="white" stroke-width="0.3"/>
</svg>
