<svg width="24" height="22" viewBox="0 0 24 22" fill="none" xmlns="http://www.w3.org/2000/svg">
<path d="M17.0168 7.5L6.1668 1.08333C5.00013 0.383333 3.48347 0.383333 2.3168 1.08333C1.03347 1.66667 0.333466 3.06667 0.333466 4.46667V17.5333C0.333466 18.9333 1.03347 20.3333 2.3168 21.0333C3.48347 21.7333 5.00013 21.7333 6.1668 21.0333L17.0168 14.5C18.8835 13.3333 19.4668 10.8833 18.3001 8.9C18.0668 8.31667 17.6001 7.85 17.0168 7.5ZM22.5001 0.5C21.8001 0.5 21.3335 0.966667 21.3335 1.66667V20.3333C21.3335 21.0333 21.8001 21.5 22.5001 21.5C23.2001 21.5 23.6668 21.0333 23.6668 20.3333V1.66667C23.6668 0.966667 23.2001 0.5 22.5001 0.5Z" fill="#031025"/>
</svg>
