<svg width="24" height="22" viewBox="0 0 24 22" fill="none" xmlns="http://www.w3.org/2000/svg">
<path d="M6.98332 7.5L17.8333 1.08333C19 0.383333 20.5167 0.383333 21.6833 1.08333C22.9667 1.66667 23.6667 3.06667 23.6667 4.46667V17.5333C23.6667 18.9333 22.9667 20.3333 21.6833 21.0333C20.5167 21.7333 19 21.7333 17.8333 21.0333L6.98332 14.5C5.11666 13.3333 4.53332 10.8833 5.69999 8.9C5.93332 8.31667 6.39999 7.85 6.98332 7.5ZM1.49999 0.5C2.19999 0.5 2.66665 0.966667 2.66665 1.66667V20.3333C2.66665 21.0333 2.19999 21.5 1.49999 21.5C0.799988 21.5 0.333321 21.0333 0.333321 20.3333V1.66667C0.333321 0.966667 0.799988 0.5 1.49999 0.5Z" fill="#031025"/>
</svg>
