<svg width="32" height="32" viewBox="0 0 32 32" fill="none" xmlns="http://www.w3.org/2000/svg">
<circle cx="16" cy="16" r="16" fill="#F8F9FB"/>
<path d="M23.0829 21.9167L20.9995 19.8334C23.5829 16.5834 23.0829 11.8334 19.8329 9.25004C16.5829 6.6667 11.8329 7.25004 9.24955 10.4167C6.66621 13.6667 7.24955 18.4167 10.4162 21C13.1662 23.1667 17.0829 23.1667 19.8329 21L21.9162 23.0834C22.2495 23.4167 22.7495 23.4167 23.0829 23.0834C23.4162 22.75 23.4162 22.25 23.0829 21.9167ZM15.1662 21C11.9162 21 9.33288 18.4167 9.33288 15.1667C9.33288 11.9167 11.9162 9.33337 15.1662 9.33337C18.4162 9.33337 20.9995 11.9167 20.9995 15.1667C20.9995 18.4167 18.4162 21 15.1662 21Z" fill="#031025"/>
</svg>
