<svg width="21" height="20" viewBox="0 0 21 20" fill="none" xmlns="http://www.w3.org/2000/svg">
<path d="M3.07715 7.61029H17.9304" stroke="#031025" stroke-linecap="round" stroke-linejoin="round"/>
<path d="M14.2033 10.8016H14.211M10.5054 10.8016H10.5131M6.7998 10.8016H6.80752M14.2033 13.9771H14.211M10.5054 13.9771H10.5131M6.7998 13.9771H6.80752" stroke="#031025" stroke-width="1.5" stroke-linecap="round" stroke-linejoin="round"/>
<path d="M13.8711 1.56085V3.86085" stroke="#031025" stroke-linecap="round" stroke-linejoin="round"/>
<path d="M7.13867 1.56085V3.86085" stroke="#031025" stroke-linecap="round" stroke-linejoin="round"/>
<path d="M18.1495 6.00452V6.00609V14.1028C18.1495 15.3312 17.7724 16.2186 17.1488 16.8024C16.5203 17.3907 15.5771 17.7309 14.332 17.7309H6.67786C5.43954 17.7309 4.49704 17.3859 3.86694 16.7871C3.2407 16.192 2.86035 15.2867 2.86035 14.0357V6.00609C2.86035 4.77852 3.23909 3.89336 3.86342 3.31146C4.493 2.72467 5.43661 2.38641 6.67786 2.38641H14.3404C15.5863 2.38641 16.5293 2.72489 17.1564 3.31099C17.7782 3.89212 18.1534 4.77657 18.1495 6.00452Z" stroke="#031025" stroke-linecap="round" stroke-linejoin="round"/>
</svg>
