<svg width="20" height="20" viewBox="0 0 20 20" fill="none" xmlns="http://www.w3.org/2000/svg">
<path d="M17.0837 10.8333C17.0837 10.678 17.1336 10.581 17.1908 10.5238C17.248 10.4666 17.345 10.4167 17.5003 10.4167C17.6556 10.4167 17.7527 10.4666 17.8099 10.5238C17.867 10.581 17.917 10.678 17.917 10.8333V15.8333C17.917 17.0199 17.0202 17.9167 15.8337 17.9167H4.16699C2.98044 17.9167 2.08366 17.0199 2.08366 15.8333V10.8333C2.08366 10.678 2.13361 10.581 2.19079 10.5238C2.24796 10.4666 2.34501 10.4167 2.50033 10.4167C2.65564 10.4167 2.75269 10.4666 2.80986 10.5238C2.86704 10.581 2.91699 10.678 2.91699 10.8333V15.8333C2.91699 16.178 3.03371 16.4976 3.2682 16.7321C3.50269 16.9666 3.82231 17.0833 4.16699 17.0833H15.8337C16.1783 17.0833 16.498 16.9666 16.7325 16.7321C16.9669 16.4976 17.0837 16.178 17.0837 15.8333V10.8333Z" stroke="#031025" stroke-width="0.833333"/>
<path d="M9.58301 4.5V3.49408L8.87171 4.20537L6.95505 6.12204C6.78443 6.29265 6.54825 6.29265 6.37764 6.12204L6.08301 6.41667L6.37764 6.12204C6.20702 5.95142 6.20702 5.71524 6.37764 5.54463L9.71097 2.21129C9.73271 2.18956 9.74874 2.17358 9.76382 2.15944C9.76541 2.15795 9.76694 2.15653 9.76839 2.15519L9.7981 2.14528C9.98717 2.08226 10.1137 2.1062 10.1467 2.12268L10.2346 2.16667H10.2432C10.2561 2.17905 10.2703 2.19317 10.2884 2.21129L13.6217 5.54463C13.7923 5.71524 13.7923 5.95142 13.6217 6.12204C13.4511 6.29265 13.2149 6.29265 13.0443 6.12204L11.1276 4.20537L10.4163 3.49408V4.5V12.5C10.4163 12.6553 10.3664 12.7524 10.3092 12.8095C10.252 12.8667 10.155 12.9167 9.99967 12.9167C9.84436 12.9167 9.74731 12.8667 9.69014 12.8095C9.63296 12.7524 9.58301 12.6553 9.58301 12.5V4.5Z" stroke="#031025" stroke-width="0.833333"/>
</svg>
