<svg width="121" height="117" viewBox="0 0 121 117" fill="none" xmlns="http://www.w3.org/2000/svg">
<path d="M91.9941 47.9372C90.3141 47.9372 88.9519 49.2993 88.9519 50.9794C88.9519 52.6594 90.3141 54.0216 91.9941 54.0216C93.6742 54.0216 95.0363 52.6594 95.0363 50.9794C95.0363 49.2993 93.6742 47.9372 91.9941 47.9372ZM82.2591 29.0756C83.6031 29.0756 84.6928 27.9858 84.6928 26.6418C84.6937 23.4986 86.7056 20.7086 89.6875 19.7148C93.514 18.44 97.6498 20.5087 98.9246 24.3352C100.199 28.162 98.1308 32.2975 94.3043 33.5723C91.3904 34.6243 89.4787 37.425 89.5604 40.5218V41.2444C89.5604 41.2452 89.5604 41.2461 89.5604 41.247C89.5613 42.5905 90.6507 43.679 91.9941 43.6781C91.995 43.6781 91.9959 43.6781 91.9971 43.6781C93.3402 43.6772 94.4288 42.5878 94.4279 41.2444V40.5218C94.3729 39.5287 94.9335 38.6035 95.8394 38.1926C100.808 36.5379 104.161 31.8899 104.163 26.6531C104.166 19.9323 98.7202 14.4816 91.9998 14.4786C85.279 14.4754 79.8283 19.921 79.8253 26.6418C79.8253 27.9858 80.9151 29.0756 82.2591 29.0756ZM101.769 63.1767C100.428 63.0855 99.2678 64.0986 99.1766 65.4393C97.9671 86.0012 80.9525 102.064 60.3552 102.088H24.8563L32.8186 94.1263C32.8189 94.126 32.8192 94.1257 32.8195 94.1254C33.7693 93.1751 33.769 91.6346 32.8186 90.6848C25.5176 83.3824 21.4157 73.4795 21.4151 63.1532C21.4136 41.6457 38.8477 24.2095 60.3552 24.208C60.8971 24.208 61.4295 24.2461 61.9667 24.2841L62.6464 24.3269C62.6666 24.3284 62.6868 24.3295 62.7067 24.3304C64.0326 24.3916 65.1568 23.3664 65.218 22.0405C65.218 22.0393 65.218 22.0381 65.2183 22.0372C65.2959 20.6964 64.2724 19.5467 62.9316 19.4689L62.2994 19.4261C61.6529 19.3833 61.0112 19.3405 60.3552 19.3405C49.5795 19.3411 39.1822 23.3132 31.1504 30.4968C13.1162 46.6276 11.5731 74.3238 27.7039 92.3581L17.2606 102.801C16.8043 103.258 16.5479 103.877 16.5479 104.522C16.5476 105.866 17.6373 106.956 18.9813 106.956H60.3552C83.5291 106.93 102.673 88.8586 104.034 65.7245C104.1 64.3998 103.093 63.2664 101.769 63.1767Z" fill="#FDEEE8"/>
</svg>
