<svg width="96" height="96" viewBox="0 0 96 96" fill="none" xmlns="http://www.w3.org/2000/svg">
<path d="M60.3749 80.6479L60.6253 81.0581L61.1025 81.0021C70.6501 79.8811 78.0545 71.7632 78.0545 61.9181V42.4896C78.0545 27.3094 65.7501 15.0051 50.5699 15.0051H48.6433C33.4631 15.0051 21.1588 27.3094 21.1588 42.4896V61.9181C21.1588 63.2027 20.1158 64.2457 18.8312 64.2457C17.5466 64.2457 16.5037 63.2027 16.5037 61.9181V42.4896C16.5037 24.7402 30.8939 10.35 48.6433 10.35H50.5699C68.3193 10.35 82.7095 24.7402 82.7095 42.4896V61.9181C82.7095 74.3452 73.2152 84.5532 61.0839 85.684L60.689 85.7208L60.4971 86.0679C59.5742 87.7379 57.7979 88.866 55.7617 88.866C52.7783 88.866 50.3566 86.4443 50.3566 83.4609C50.3566 80.4775 52.7783 78.0558 55.7617 78.0558C57.7115 78.0558 59.4252 79.0921 60.3749 80.6479Z" fill="#AD88FB" stroke="#7444EE" stroke-width="1.5"/>
<path d="M81.55 47.7781C83.5344 47.7781 85.2832 48.3915 86.509 49.3249C87.7337 50.2575 88.3832 51.4561 88.3832 52.6832V61.9158C88.3832 63.1429 87.7337 64.3416 86.509 65.2741C85.2832 66.2075 83.5344 66.8209 81.55 66.8209H77.5084C75.5239 66.8209 73.7751 66.2075 72.5493 65.2741C71.3246 64.3416 70.6752 63.1429 70.6752 61.9158V52.6832C70.6752 51.4561 71.3246 50.2575 72.5493 49.3249C73.7751 48.3915 75.5239 47.7781 77.5084 47.7781H81.55Z" fill="#7444EE" stroke="#AD88FB" stroke-width="2.5"/>
<path d="M21.7242 47.7781C23.7086 47.7781 25.4575 48.3915 26.6832 49.3249C27.9079 50.2575 28.5574 51.4561 28.5574 52.6832V61.9158C28.5574 63.1429 27.9079 64.3416 26.6832 65.2741C25.4575 66.2075 23.7086 66.8209 21.7242 66.8209H17.6826C15.6982 66.8209 13.9493 66.2075 12.7235 65.2741C11.4989 64.3416 10.8494 63.1429 10.8494 61.9158V52.6832C10.8494 51.4561 11.4989 50.2575 12.7235 49.3249C13.9493 48.3915 15.6982 47.7781 17.6826 47.7781H21.7242Z" fill="#7444EE" stroke="#AD88FB" stroke-width="2.5"/>
</svg>
