<svg width="69" height="81" viewBox="0 0 69 81" fill="none" xmlns="http://www.w3.org/2000/svg">
<path d="M45.3749 71.6479L45.6253 72.0581L46.1025 72.0021C55.6501 70.8811 63.0545 62.7632 63.0545 52.9181V33.4896C63.0545 18.3094 50.7501 6.00505 35.5699 6.00505H33.6433C18.4631 6.00505 6.15877 18.3094 6.15877 33.4896V52.9181C6.15877 54.2027 5.11582 55.2457 3.83123 55.2457C2.54664 55.2457 1.50369 54.2027 1.50369 52.9181V33.4896C1.50369 15.7402 15.8939 1.34998 33.6433 1.34998H35.5699C53.3193 1.34998 67.7095 15.7402 67.7095 33.4896V52.9181C67.7095 65.3452 58.2152 75.5532 46.0839 76.684L45.689 76.7208L45.4971 77.0679C44.5742 78.7379 42.7979 79.866 40.7617 79.866C37.7783 79.866 35.3566 77.4443 35.3566 74.4609C35.3566 71.4775 37.7783 69.0558 40.7617 69.0558C42.7115 69.0558 44.4252 70.0921 45.3749 71.6479Z" fill="#AD88FB" stroke="#7444EE" stroke-width="1.5"/>
</svg>
